<?xml version="1.0" encoding="utf-8"?>
<!-- Generator: Adobe Illustrator 22.0.1, SVG Export Plug-In . SVG Version: 6.00 Build 0)  -->
<svg version="1.1" xmlns="http://www.w3.org/2000/svg" xmlns:xlink="http://www.w3.org/1999/xlink" x="0px" y="0px"
	 viewBox="0 0 500 500" style="enable-background:new 0 0 500 500;" xml:space="preserve">
<style type="text/css">
	.st0{fill:#FFFFFF;}
	.st1{opacity:0.1;fill:#231F20;}
	.st2{fill:#27AAE1;}
	.st3{opacity:0.2;}
	.st4{fill:#231F20;}
	.st5{fill:#F1F2F2;}
	.st6{fill:#E6E7E8;}
	.st7{fill:#414042;}
	.st8{fill:#B2875D;}
	.st9{opacity:0.1;}
	.st10{fill:#C49A6C;}
	.st11{fill:#76C058;}
	.st12{font-family:'Exo2-Black';}
	.st13{font-size:64.1431px;}
	.st14{fill:#535151;}
	.st15{font-size:12px;}
	.st16{fill:none;}
</style>
<g id="BACKGROUND_2">
	<g>
		<rect x="568.8" class="st0" width="750.3" height="500"/>
		<g>
			<text transform="matrix(1 0 0 1 863.0508 382.0986)"><tspan x="0" y="0" style="fill:#6D6E71; font-family:'Montserrat-ExtraLight'; font-size:34.923px; letter-spacing:1;">You have</tspan><tspan x="-22.2" y="38.6" style="fill:#6D6E71; font-family:'Montserrat-ExtraBold'; font-size:34.923px; letter-spacing:1;">been boxed!</tspan></text>
		</g>
		<g>
			<path class="st1" d="M1145.5,328.1c0,7.1-89.8,6.2-200.5,6.2c-110.8,0-200.5,0.9-200.5-6.2c0-7.1,89.8-12.9,200.5-12.9
				C1055.8,315.2,1145.5,320.9,1145.5,328.1z"/>
			<g>
				<g>
					<g>
						<path class="st2" d="M1000.7,153.2c0,31.8-25.8,57.7-57.7,57.7c-31.8,0-57.7-25.8-57.7-57.7c0-31.8,25.8-57.7,57.7-57.7
							C974.8,95.5,1000.7,121.3,1000.7,153.2z"/>
						<g>
							<path class="st2" d="M981.3,105.8c0,30.2-24.5,54.7-54.7,54.7c-30.2,0-54.7-24.5-54.7-54.7c0-30.2,24.5-54.7,54.7-54.7
								C956.9,51.1,981.3,75.6,981.3,105.8z"/>
							<path class="st2" d="M1012.4,102.2c0,16.7-13.5,30.2-30.2,30.2c-16.7,0-30.2-13.5-30.2-30.2c0-16.7,13.5-30.2,30.2-30.2
								C998.9,72,1012.4,85.5,1012.4,102.2z"/>
							<path class="st2" d="M962.1,145.4c0,30.8-25,55.8-55.8,55.8c-30.8,0-55.8-25-55.8-55.8c0-30.8,25-55.8,55.8-55.8
								C937.2,89.6,962.1,114.6,962.1,145.4z"/>
							<path class="st2" d="M1041.5,149.5c0,28.4-23,51.5-51.5,51.5c-28.4,0-51.5-23-51.5-51.5c0-28.4,23.1-51.5,51.5-51.5
								C1018.4,98,1041.5,121.1,1041.5,149.5z"/>
						</g>
					</g>
					<g>
						<g class="st3">
							<polygon class="st4" points="972.2,87.8 972.2,87.8 903,87.8 903,195.9 1003.7,196.4 991,106.8 							"/>
						</g>
						<g>
							<polygon class="st5" points="968.3,86.5 968.4,86.5 899.2,86.5 899.2,194.6 988.9,194.6 988.9,107.2 							"/>
						</g>
						<g>
							<rect x="904.3" y="94.9" class="st6" width="68.6" height="1.2"/>
							<rect x="904.3" y="105.5" class="st6" width="79.7" height="1.2"/>
							<rect x="904.3" y="116.1" class="st6" width="79.7" height="1.2"/>
							<rect x="904.3" y="126.7" class="st6" width="79.7" height="1.2"/>
							<rect x="904.3" y="137.4" class="st6" width="79.7" height="1.2"/>
							<rect x="904.3" y="148" class="st6" width="79.7" height="1.2"/>
							<rect x="904.3" y="158.6" class="st6" width="79.7" height="1.2"/>
							<rect x="904.3" y="169.2" class="st6" width="79.7" height="1.2"/>
							<rect x="904.3" y="179.9" class="st6" width="79.7" height="1.2"/>
							<rect x="904.3" y="190.5" class="st6" width="79.7" height="1.2"/>
						</g>
						<polygon class="st0" points="989,107.2 968.3,107.2 968.3,86.5 						"/>
						<g>
							<g>
								<g>
									<path class="st0" d="M936.8,124.9c0,7-5.7,12.6-12.6,12.6c-7,0-12.6-5.7-12.6-12.6c0-7,5.7-12.6,12.6-12.6
										C931.2,112.3,936.8,117.9,936.8,124.9z"/>
									<path class="st7" d="M933.6,124.9c0,5.2-4.2,9.4-9.4,9.4s-9.4-4.2-9.4-9.4c0-5.2,4.2-9.4,9.4-9.4S933.6,119.7,933.6,124.9z
										"/>
									<path class="st0" d="M924.6,118.5c0,1.8-1.4,3.2-3.2,3.2c-1.8,0-3.2-1.4-3.2-3.2c0-1.8,1.4-3.2,3.2-3.2
										C923.1,115.3,924.6,116.7,924.6,118.5z"/>
									<path class="st0" d="M919.8,125.1c0,0.9-0.7,1.6-1.6,1.6c-0.9,0-1.6-0.7-1.6-1.6c0-0.9,0.7-1.6,1.6-1.6
										C919.1,123.5,919.8,124.2,919.8,125.1z"/>
									<path class="st0" d="M924.1,129.4c0,1.3-1.1,2.4-2.4,2.4c-1.3,0-2.4-1.1-2.4-2.4c0-1.3,1.1-2.4,2.4-2.4
										C923,127,924.1,128.1,924.1,129.4z"/>
									<path class="st0" d="M932.3,126.4c-2.8,0.4-3.1,0.8-3.6,3.6c-0.4-2.8-0.8-3.1-3.6-3.6c2.8-0.4,3.1-0.8,3.6-3.6
										C929.2,125.6,929.5,126,932.3,126.4z"/>
								</g>
								<g>
									<path class="st0" d="M977.4,124.9c0,7-5.7,12.6-12.6,12.6c-7,0-12.6-5.7-12.6-12.6c0-7,5.7-12.6,12.6-12.6
										C971.7,112.3,977.4,117.9,977.4,124.9z"/>
									<path class="st7" d="M974.1,124.9c0,5.2-4.2,9.4-9.4,9.4c-5.2,0-9.4-4.2-9.4-9.4c0-5.2,4.2-9.4,9.4-9.4
										C969.9,115.5,974.1,119.7,974.1,124.9z"/>
									<path class="st0" d="M965.1,118.5c0,1.8-1.4,3.2-3.2,3.2c-1.8,0-3.2-1.4-3.2-3.2c0-1.8,1.4-3.2,3.2-3.2
										C963.7,115.3,965.1,116.7,965.1,118.5z"/>
									<path class="st0" d="M960.3,125.1c0,0.9-0.7,1.6-1.6,1.6c-0.9,0-1.6-0.7-1.6-1.6c0-0.9,0.7-1.6,1.6-1.6
										C959.6,123.5,960.3,124.2,960.3,125.1z"/>
									<path class="st0" d="M964.6,129.4c0,1.3-1.1,2.4-2.4,2.4c-1.3,0-2.4-1.1-2.4-2.4c0-1.3,1.1-2.4,2.4-2.4
										C963.6,127,964.6,128.1,964.6,129.4z"/>
									<path class="st0" d="M972.8,126.4c-2.8,0.4-3.1,0.8-3.6,3.6c-0.4-2.8-0.8-3.1-3.6-3.6c2.8-0.4,3.1-0.8,3.6-3.6
										C969.7,125.6,970,126,972.8,126.4z"/>
								</g>
							</g>
							<g>
								<g>
									<path class="st7" d="M961,161c-1,0-1.9-0.8-1.9-1.9c0-8.1-6.6-14.6-14.6-14.6c-8.1,0-14.6,6.6-14.6,14.6
										c0,1-0.8,1.9-1.9,1.9c-1,0-1.9-0.8-1.9-1.9c0-10.2,8.3-18.4,18.4-18.4c10.2,0,18.4,8.3,18.4,18.4
										C962.9,160.1,962.1,161,961,161z"/>
								</g>
							</g>
						</g>
					</g>
				</g>
				<g>
					<g>
						<g>
							<polygon class="st8" points="1049.8,327.2 838.2,327.2 838.2,164.1 1049.8,164.1 							"/>
						</g>
						<g>
							<g class="st9">
								<rect x="838.3" y="232.3" class="st0" width="21.5" height="11.8"/>
							</g>
							<g class="st9">
								<rect x="838.3" y="259.8" class="st0" width="21.5" height="11.8"/>
							</g>
							<g class="st9">
								<rect x="838.3" y="287.3" class="st0" width="21.5" height="11.8"/>
							</g>
							<g class="st9">
								<rect x="1028.3" y="232.3" class="st0" width="21.5" height="11.8"/>
							</g>
							<g class="st9">
								<rect x="1028.3" y="259.8" class="st0" width="21.5" height="11.8"/>
							</g>
							<g class="st9">
								<rect x="1028.3" y="287.3" class="st0" width="21.5" height="11.8"/>
							</g>
						</g>
					</g>
					<g>
						<g>
							<polygon class="st10" points="1090.7,207.7 1047.2,166.8 1049.8,164.1 1093.3,205 							"/>
						</g>
						<g>
							<polygon class="st10" points="797.2,207.7 840.8,166.8 838.2,164.1 794.7,205 							"/>
						</g>
						<g>
							<polygon class="st10" points="1063.9,218.3 824,218.3 838.2,164.1 1049.8,164.1 							"/>
						</g>
					</g>
				</g>
			</g>
		</g>
		<g>
			<g>
				
					<text transform="matrix(1 0 0 1 872.9863 280.9932)" class="st7" style="font-family:'Montserrat-Black'; font-size:69.0894px;">404</text>
			</g>
			<g>
				<text transform="matrix(1 0 0 1 879.585 303.9092)" class="st7" style="font-family:'Montserrat-Light'; font-size:14.5112px;">page not found</text>
			</g>
		</g>
	</g>
</g>
<g id="BACKGROUND_1">
	<g>
		<rect class="st0" width="500" height="500"/>
		<g>
		</g>
		<g>
			<path class="st1" d="M398.1,321.2c0,6.6-65.9,5.8-147.1,5.8c-81.2,0-147.1,0.8-147.1-5.8c0-6.6,65.9-11.9,147.1-11.9
				C332.2,309.3,398.1,314.6,398.1,321.2z"/>
			<g>
				<g>
					<g>
						<path class="st2" d="M302.7,158.9c0,29.6-24,53.5-53.5,53.5c-29.6,0-53.5-24-53.5-53.5c0-29.6,24-53.5,53.5-53.5
							C278.7,105.3,302.7,129.3,302.7,158.9z"/>
						<g>
							<path class="st11" d="M284.7,114.9c0,28-22.7,50.7-50.8,50.7c-28,0-50.7-22.7-50.7-50.7c0-28,22.7-50.7,50.7-50.7
								C262,64.1,284.7,86.8,284.7,114.9z"/>
							<path class="st11" d="M313.6,111.6c0,15.5-12.6,28.1-28.1,28.1c-15.5,0-28.1-12.6-28.1-28.1c0-15.5,12.6-28.1,28.1-28.1
								C301,83.5,313.6,96.1,313.6,111.6z"/>
							<path class="st11" d="M266.9,151.6c0,28.6-23.2,51.8-51.8,51.8c-28.6,0-51.8-23.2-51.8-51.8c0-28.6,23.2-51.8,51.8-51.8
								C243.7,99.9,266.9,123,266.9,151.6z"/>
							<path class="st11" d="M340.6,155.4c0,26.4-21.4,47.8-47.8,47.8c-26.4,0-47.8-21.4-47.8-47.8c0-26.4,21.4-47.8,47.8-47.8
								C319.2,107.6,340.6,129,340.6,155.4z"/>
						</g>
					</g>
					<g>
						<g class="st3">
							<polygon class="st4" points="276.2,98.2 276.2,98.2 212,98.2 212,198.5 305.5,199 293.7,115.8 							"/>
						</g>
						<g>
							<polygon class="st5" points="272.7,97 272.7,97 208.4,97 208.4,197.3 291.8,197.3 291.8,116.1 							"/>
						</g>
						<g>
							<rect x="213.2" y="104.7" class="st6" width="63.7" height="1.1"/>
							<rect x="213.2" y="114.6" class="st6" width="74" height="1.1"/>
							<rect x="213.2" y="124.5" class="st6" width="74" height="1.1"/>
							<rect x="213.2" y="134.3" class="st6" width="74" height="1.1"/>
							<rect x="213.2" y="144.2" class="st6" width="74" height="1.1"/>
							<rect x="213.2" y="154.1" class="st6" width="74" height="1.1"/>
							<rect x="213.2" y="163.9" class="st6" width="74" height="1.1"/>
							<rect x="213.2" y="173.8" class="st6" width="74" height="1.1"/>
							<rect x="213.2" y="183.6" class="st6" width="74" height="1.1"/>
							<rect x="213.2" y="193.5" class="st6" width="74" height="1.1"/>
						</g>
						<polygon class="st0" points="291.8,116.2 272.7,116.2 272.7,97 						"/>
						<g>
							<g>
								<g>
									<path class="st0" d="M243.4,132.6c0,6.5-5.2,11.7-11.7,11.7c-6.5,0-11.7-5.2-11.7-11.7c0-6.5,5.2-11.7,11.7-11.7
										C238.2,120.9,243.4,126.2,243.4,132.6z"/>
									<path class="st7" d="M240.4,132.6c0,4.8-3.9,8.7-8.7,8.7s-8.7-3.9-8.7-8.7s3.9-8.7,8.7-8.7S240.4,127.8,240.4,132.6z"/>
									<path class="st0" d="M232,126.6c0,1.6-1.3,3-3,3c-1.6,0-3-1.3-3-3c0-1.6,1.3-3,3-3C230.7,123.7,232,125,232,126.6z"/>
									<path class="st0" d="M227.6,132.8c0,0.8-0.7,1.5-1.5,1.5c-0.8,0-1.5-0.7-1.5-1.5c0-0.8,0.7-1.5,1.5-1.5
										C226.9,131.3,227.6,132,227.6,132.8z"/>
									<path class="st0" d="M231.6,136.8c0,1.2-1,2.2-2.2,2.2s-2.2-1-2.2-2.2c0-1.2,1-2.2,2.2-2.2S231.6,135.6,231.6,136.8z"/>
									<path class="st0" d="M239.2,134c-2.6,0.4-2.9,0.7-3.3,3.3c-0.4-2.6-0.7-2.9-3.3-3.3c2.6-0.4,2.9-0.7,3.3-3.3
										C236.3,133.3,236.6,133.6,239.2,134z"/>
								</g>
								<g>
									<path class="st0" d="M281.1,132.6c0,6.5-5.2,11.7-11.7,11.7c-6.5,0-11.7-5.2-11.7-11.7c0-6.5,5.2-11.7,11.7-11.7
										C275.8,120.9,281.1,126.2,281.1,132.6z"/>
									<path class="st7" d="M278,132.6c0,4.8-3.9,8.7-8.7,8.7c-4.8,0-8.7-3.9-8.7-8.7s3.9-8.7,8.7-8.7
										C274.1,123.9,278,127.8,278,132.6z"/>
									<path class="st0" d="M269.7,126.6c0,1.6-1.3,3-3,3c-1.6,0-3-1.3-3-3c0-1.6,1.3-3,3-3C268.3,123.7,269.7,125,269.7,126.6z"
										/>
									<path class="st0" d="M265.2,132.8c0,0.8-0.7,1.5-1.5,1.5c-0.8,0-1.5-0.7-1.5-1.5c0-0.8,0.7-1.5,1.5-1.5
										C264.5,131.3,265.2,132,265.2,132.8z"/>
									<path class="st0" d="M269.2,136.8c0,1.2-1,2.2-2.2,2.2c-1.2,0-2.2-1-2.2-2.2c0-1.2,1-2.2,2.2-2.2
										C268.2,134.6,269.2,135.6,269.2,136.8z"/>
									<path class="st0" d="M276.8,134c-2.6,0.4-2.9,0.7-3.3,3.3c-0.4-2.6-0.7-2.9-3.3-3.3c2.6-0.4,2.9-0.7,3.3-3.3
										C273.9,133.3,274.2,133.6,276.8,134z"/>
								</g>
							</g>
							<g>
								<g>
									<path class="st7" d="M265.9,166.1c-1,0-1.7-0.8-1.7-1.7c0-7.5-6.1-13.6-13.6-13.6c-7.5,0-13.6,6.1-13.6,13.6
										c0,1-0.8,1.7-1.7,1.7c-1,0-1.7-0.8-1.7-1.7c0-9.4,7.7-17.1,17.1-17.1c9.4,0,17.1,7.7,17.1,17.1
										C267.6,165.3,266.8,166.1,265.9,166.1z"/>
								</g>
							</g>
						</g>
					</g>
				</g>
				<g>
					<g>
						<g>
							<polygon class="st8" points="348.3,320.4 151.8,320.4 151.8,169 348.3,169 							"/>
						</g>
						<g>
							<g class="st9">
								<rect x="151.9" y="232.4" class="st0" width="20" height="10.9"/>
							</g>
							<g class="st9">
								<rect x="151.9" y="257.9" class="st0" width="20" height="10.9"/>
							</g>
							<g class="st9">
								<rect x="151.9" y="283.4" class="st0" width="20" height="10.9"/>
							</g>
							<g class="st9">
								<rect x="328.3" y="232.4" class="st0" width="20" height="10.9"/>
							</g>
							<g class="st9">
								<rect x="328.3" y="257.9" class="st0" width="20" height="10.9"/>
							</g>
							<g class="st9">
								<rect x="328.3" y="283.4" class="st0" width="20" height="10.9"/>
							</g>
						</g>
					</g>
					<g>
						<g>
							<polygon class="st10" points="386.3,209.5 345.9,171.6 348.3,169 388.7,207 							"/>
						</g>
						<g>
							<polygon class="st10" points="113.8,209.5 154.2,171.6 151.8,169 111.4,207 							"/>
						</g>
						<g>
							<polygon class="st10" points="361.4,219.3 138.7,219.3 151.8,169 348.3,169 							"/>
						</g>
					</g>
				</g>
			</g>
		</g>
		<g>
			<g>
				<text transform="matrix(1 0 0 1 188.1416 289.5342)" class="st7 st12 st13">404</text>
			</g>
		</g>
	</g>
	<text transform="matrix(1 0 0 1 96.9771 352.667)"><tspan x="0" y="0" class="st14 st12 st15">LA PAGINA QUE INTENTAS SOLICTAR NO SE ENCUENTRA</tspan><tspan x="74.7" y="14.4" class="st14 st12 st15">EN EL SERVIDOR (ERROR 404)</tspan></text>
	<rect x="283.7" y="361" class="st16" width="154" height="2"/>
</g>
<g id="DESIGNED_BY_FREEPIK">
	<g>
		<path class="st14" d="M877,474v-0.2c-0.2,0.2-0.4,0.4-0.6,0.6c-0.2,0.2-0.4,0.3-0.7,0.3c-0.2,0.1-0.5,0.1-0.8,0.1
			c-0.4,0-0.7-0.1-1-0.2c-0.3-0.2-0.6-0.4-0.8-0.7c-0.2-0.3-0.4-0.6-0.5-1c-0.1-0.4-0.2-0.8-0.2-1.3c0-1,0.2-1.7,0.7-2.3
			c0.5-0.5,1.1-0.8,1.9-0.8c0.4,0,0.8,0.1,1.1,0.2c0.3,0.2,0.6,0.4,0.9,0.7v-2.3c0-0.3,0.1-0.6,0.2-0.7c0.1-0.2,0.3-0.2,0.5-0.2
			c0.2,0,0.4,0.1,0.5,0.2c0.1,0.2,0.2,0.4,0.2,0.7v6.9c0,0.3-0.1,0.5-0.2,0.7c-0.1,0.1-0.3,0.2-0.5,0.2c-0.2,0-0.4-0.1-0.5-0.2
			C877,474.5,877,474.3,877,474z M873.9,471.7c0,0.4,0.1,0.8,0.2,1.1c0.1,0.3,0.3,0.5,0.5,0.7c0.2,0.2,0.5,0.2,0.8,0.2
			c0.3,0,0.5-0.1,0.8-0.2c0.2-0.1,0.4-0.4,0.5-0.7c0.1-0.3,0.2-0.7,0.2-1.1c0-0.4-0.1-0.8-0.2-1.1c-0.1-0.3-0.3-0.5-0.5-0.7
			c-0.2-0.2-0.5-0.2-0.8-0.2c-0.3,0-0.5,0.1-0.8,0.2c-0.2,0.2-0.4,0.4-0.5,0.7C874,470.9,873.9,471.3,873.9,471.7z M883.8,472.1
			h-3.1c0,0.4,0.1,0.7,0.2,0.9c0.1,0.3,0.3,0.5,0.6,0.6c0.2,0.1,0.5,0.2,0.8,0.2c0.2,0,0.4,0,0.5-0.1c0.2,0,0.3-0.1,0.4-0.2
			c0.1-0.1,0.3-0.2,0.4-0.3c0.1-0.1,0.3-0.3,0.5-0.4c0.1-0.1,0.2-0.1,0.3-0.1c0.2,0,0.3,0,0.4,0.1c0.1,0.1,0.1,0.2,0.1,0.4
			c0,0.1-0.1,0.3-0.2,0.5c-0.1,0.2-0.3,0.4-0.5,0.5c-0.2,0.2-0.5,0.3-0.8,0.4c-0.3,0.1-0.7,0.2-1.2,0.2c-1,0-1.8-0.3-2.3-0.9
			c-0.6-0.6-0.8-1.3-0.8-2.3c0-0.5,0.1-0.9,0.2-1.3c0.1-0.4,0.3-0.7,0.6-1c0.3-0.3,0.6-0.5,1-0.6c0.4-0.2,0.8-0.2,1.3-0.2
			c0.6,0,1.1,0.1,1.6,0.4c0.4,0.3,0.8,0.6,1,1c0.2,0.4,0.3,0.8,0.3,1.2c0,0.4-0.1,0.6-0.3,0.8C884.6,472,884.2,472.1,883.8,472.1z
			 M880.8,471.2h2.8c0-0.5-0.2-0.9-0.4-1.2c-0.2-0.3-0.6-0.4-1-0.4c-0.4,0-0.7,0.1-1,0.4C881,470.3,880.8,470.7,880.8,471.2z
			 M890.9,472.8c0,0.4-0.1,0.8-0.3,1.1c-0.2,0.3-0.5,0.5-0.9,0.7c-0.4,0.2-0.9,0.2-1.5,0.2c-0.6,0-1-0.1-1.4-0.3
			c-0.4-0.2-0.7-0.4-0.9-0.6c-0.2-0.3-0.3-0.5-0.3-0.8c0-0.2,0.1-0.3,0.2-0.4c0.1-0.1,0.3-0.2,0.5-0.2c0.2,0,0.3,0,0.4,0.1
			c0.1,0.1,0.2,0.2,0.3,0.3c0.2,0.3,0.4,0.5,0.6,0.6c0.2,0.1,0.5,0.2,0.9,0.2c0.3,0,0.6-0.1,0.8-0.2c0.2-0.1,0.3-0.3,0.3-0.5
			c0-0.3-0.1-0.5-0.3-0.6c-0.2-0.1-0.5-0.2-1-0.4c-0.5-0.1-1-0.3-1.3-0.4c-0.3-0.1-0.6-0.3-0.8-0.6c-0.2-0.2-0.3-0.5-0.3-0.9
			c0-0.3,0.1-0.6,0.3-0.9c0.2-0.3,0.5-0.5,0.8-0.7c0.4-0.2,0.8-0.2,1.3-0.2c0.4,0,0.8,0,1.1,0.1c0.3,0.1,0.6,0.2,0.8,0.3
			c0.2,0.1,0.4,0.3,0.5,0.5c0.1,0.2,0.2,0.3,0.2,0.5c0,0.2-0.1,0.3-0.2,0.4c-0.1,0.1-0.3,0.2-0.5,0.2c-0.2,0-0.3,0-0.4-0.1
			c-0.1-0.1-0.2-0.2-0.4-0.4c-0.1-0.2-0.3-0.3-0.4-0.4s-0.4-0.1-0.7-0.1c-0.3,0-0.5,0.1-0.7,0.2c-0.2,0.1-0.3,0.3-0.3,0.4
			c0,0.2,0.1,0.3,0.2,0.4c0.1,0.1,0.3,0.2,0.6,0.3c0.2,0.1,0.6,0.2,1,0.3c0.5,0.1,0.9,0.3,1.2,0.4c0.3,0.2,0.5,0.4,0.7,0.6
			C890.9,472.3,890.9,472.5,890.9,472.8z M892.5,467.8c-0.2,0-0.4-0.1-0.6-0.2c-0.2-0.1-0.2-0.3-0.2-0.6c0-0.2,0.1-0.4,0.2-0.5
			c0.2-0.1,0.3-0.2,0.6-0.2c0.2,0,0.4,0.1,0.5,0.2c0.2,0.1,0.2,0.3,0.2,0.6c0,0.2-0.1,0.4-0.2,0.6
			C892.9,467.7,892.7,467.8,892.5,467.8z M893.3,469.4v4.5c0,0.3-0.1,0.5-0.2,0.7c-0.1,0.2-0.3,0.2-0.6,0.2s-0.4-0.1-0.6-0.2
			c-0.1-0.2-0.2-0.4-0.2-0.7v-4.5c0-0.3,0.1-0.5,0.2-0.7c0.1-0.2,0.3-0.2,0.6-0.2s0.4,0.1,0.6,0.2
			C893.2,468.9,893.3,469.1,893.3,469.4z M900.1,469.7v4.5c0,0.5-0.1,1-0.2,1.3c-0.1,0.4-0.3,0.7-0.5,0.9c-0.2,0.2-0.6,0.4-1,0.5
			c-0.4,0.1-0.9,0.2-1.5,0.2c-0.5,0-1-0.1-1.4-0.2c-0.4-0.2-0.7-0.3-1-0.6c-0.2-0.2-0.3-0.5-0.3-0.7c0-0.2,0.1-0.3,0.2-0.5
			c0.1-0.1,0.3-0.2,0.5-0.2c0.2,0,0.4,0.1,0.6,0.3c0.1,0.1,0.2,0.2,0.3,0.3c0.1,0.1,0.2,0.2,0.3,0.3c0.1,0.1,0.2,0.1,0.4,0.2
			c0.2,0,0.3,0.1,0.5,0.1c0.4,0,0.7-0.1,0.9-0.2c0.2-0.1,0.4-0.3,0.5-0.5c0.1-0.2,0.1-0.4,0.2-0.6c0-0.2,0-0.6,0-1.1
			c-0.2,0.3-0.5,0.6-0.8,0.8c-0.3,0.2-0.7,0.3-1.1,0.3c-0.5,0-1-0.1-1.4-0.4c-0.4-0.3-0.7-0.6-0.9-1.1c-0.2-0.5-0.3-1-0.3-1.7
			c0-0.5,0.1-0.9,0.2-1.3c0.1-0.4,0.3-0.7,0.5-1c0.2-0.3,0.5-0.5,0.8-0.6c0.3-0.1,0.6-0.2,1-0.2c0.4,0,0.8,0.1,1.1,0.3
			c0.3,0.2,0.6,0.4,0.9,0.8v-0.2c0-0.3,0.1-0.5,0.2-0.6c0.1-0.1,0.3-0.2,0.5-0.2c0.3,0,0.5,0.1,0.6,0.3
			C900.1,469,900.1,469.3,900.1,469.7z M895.6,471.7c0,0.6,0.1,1.1,0.4,1.4c0.3,0.3,0.6,0.5,1.1,0.5c0.3,0,0.5-0.1,0.7-0.2
			c0.2-0.1,0.4-0.3,0.6-0.6c0.1-0.3,0.2-0.6,0.2-1c0-0.6-0.1-1.1-0.4-1.5c-0.3-0.4-0.6-0.5-1.1-0.5c-0.4,0-0.8,0.2-1.1,0.5
			C895.8,470.5,895.6,471,895.6,471.7z M902.6,469.4v0.2c0.3-0.4,0.6-0.6,0.9-0.8c0.3-0.2,0.7-0.3,1.1-0.3c0.4,0,0.8,0.1,1.1,0.3
			c0.3,0.2,0.6,0.4,0.7,0.8c0.1,0.2,0.2,0.4,0.2,0.6c0,0.2,0,0.5,0,0.8v2.9c0,0.3-0.1,0.5-0.2,0.7c-0.1,0.2-0.3,0.2-0.6,0.2
			c-0.2,0-0.4-0.1-0.6-0.2c-0.1-0.2-0.2-0.4-0.2-0.7v-2.6c0-0.5-0.1-0.9-0.2-1.2c-0.1-0.3-0.4-0.4-0.9-0.4c-0.3,0-0.5,0.1-0.8,0.2
			c-0.2,0.2-0.4,0.4-0.5,0.7c-0.1,0.2-0.1,0.7-0.1,1.3v2c0,0.3-0.1,0.6-0.2,0.7c-0.1,0.2-0.3,0.2-0.6,0.2c-0.2,0-0.4-0.1-0.6-0.2
			c-0.1-0.2-0.2-0.4-0.2-0.7v-4.5c0-0.3,0.1-0.5,0.2-0.7c0.1-0.1,0.3-0.2,0.5-0.2c0.1,0,0.3,0,0.4,0.1c0.1,0.1,0.2,0.2,0.3,0.3
			S902.6,469.2,902.6,469.4z M912.1,472.1h-3c0,0.4,0.1,0.7,0.2,0.9c0.1,0.3,0.3,0.5,0.6,0.6c0.2,0.1,0.5,0.2,0.8,0.2
			c0.2,0,0.4,0,0.5-0.1c0.2,0,0.3-0.1,0.4-0.2c0.1-0.1,0.3-0.2,0.4-0.3c0.1-0.1,0.3-0.3,0.5-0.4c0.1-0.1,0.2-0.1,0.3-0.1
			c0.2,0,0.3,0,0.4,0.1c0.1,0.1,0.2,0.2,0.2,0.4c0,0.1-0.1,0.3-0.2,0.5c-0.1,0.2-0.3,0.4-0.5,0.5s-0.5,0.3-0.8,0.4
			c-0.3,0.1-0.7,0.2-1.2,0.2c-1,0-1.8-0.3-2.3-0.9c-0.6-0.6-0.8-1.3-0.8-2.3c0-0.5,0.1-0.9,0.2-1.3c0.1-0.4,0.3-0.7,0.6-1
			c0.3-0.3,0.6-0.5,1-0.6c0.4-0.2,0.8-0.2,1.3-0.2c0.6,0,1.1,0.1,1.6,0.4c0.4,0.3,0.8,0.6,1,1c0.2,0.4,0.3,0.8,0.3,1.2
			c0,0.4-0.1,0.6-0.3,0.8C912.8,472,912.5,472.1,912.1,472.1z M909,471.2h2.8c0-0.5-0.2-0.9-0.4-1.2c-0.2-0.3-0.6-0.4-1-0.4
			c-0.4,0-0.7,0.1-1,0.4C909.2,470.3,909.1,470.7,909,471.2z M918.4,474v-0.2c-0.2,0.2-0.4,0.4-0.6,0.6c-0.2,0.2-0.4,0.3-0.7,0.3
			c-0.2,0.1-0.5,0.1-0.8,0.1c-0.4,0-0.7-0.1-1-0.2c-0.3-0.2-0.6-0.4-0.8-0.7c-0.2-0.3-0.4-0.6-0.5-1c-0.1-0.4-0.2-0.8-0.2-1.3
			c0-1,0.2-1.7,0.7-2.3c0.5-0.5,1.1-0.8,1.9-0.8c0.4,0,0.8,0.1,1.1,0.2c0.3,0.2,0.6,0.4,0.9,0.7v-2.3c0-0.3,0.1-0.6,0.2-0.7
			c0.1-0.2,0.3-0.2,0.5-0.2c0.2,0,0.4,0.1,0.5,0.2c0.1,0.2,0.2,0.4,0.2,0.7v6.9c0,0.3-0.1,0.5-0.2,0.7c-0.1,0.1-0.3,0.2-0.5,0.2
			c-0.2,0-0.4-0.1-0.5-0.2C918.5,474.5,918.4,474.3,918.4,474z M915.4,471.7c0,0.4,0.1,0.8,0.2,1.1c0.1,0.3,0.3,0.5,0.5,0.7
			c0.2,0.2,0.5,0.2,0.7,0.2c0.3,0,0.5-0.1,0.8-0.2c0.2-0.1,0.4-0.4,0.5-0.7c0.1-0.3,0.2-0.7,0.2-1.1c0-0.4-0.1-0.8-0.2-1.1
			c-0.1-0.3-0.3-0.5-0.5-0.7c-0.2-0.2-0.5-0.2-0.8-0.2c-0.3,0-0.5,0.1-0.8,0.2c-0.2,0.2-0.4,0.4-0.5,0.7
			C915.4,470.9,915.4,471.3,915.4,471.7z M924.8,467.1v2.4c0.3-0.3,0.6-0.5,0.9-0.7c0.3-0.2,0.7-0.2,1.1-0.2c0.5,0,1,0.1,1.4,0.4
			c0.4,0.2,0.7,0.6,0.9,1.1c0.2,0.5,0.3,1,0.3,1.7c0,0.5-0.1,0.9-0.2,1.3c-0.1,0.4-0.3,0.7-0.5,1c-0.2,0.3-0.5,0.5-0.8,0.7
			c-0.3,0.2-0.7,0.2-1.1,0.2c-0.2,0-0.5,0-0.7-0.1c-0.2-0.1-0.4-0.1-0.5-0.2c-0.1-0.1-0.3-0.2-0.4-0.3c-0.1-0.1-0.2-0.2-0.4-0.4v0.2
			c0,0.3-0.1,0.5-0.2,0.7s-0.3,0.2-0.5,0.2c-0.2,0-0.4-0.1-0.5-0.2c-0.1-0.2-0.2-0.4-0.2-0.7v-6.8c0-0.3,0.1-0.6,0.2-0.7
			c0.1-0.2,0.3-0.2,0.5-0.2c0.2,0,0.4,0.1,0.6,0.2C924.8,466.6,924.8,466.8,924.8,467.1z M924.9,471.7c0,0.6,0.1,1.1,0.4,1.4
			c0.3,0.3,0.7,0.5,1.1,0.5c0.4,0,0.7-0.2,1-0.5c0.3-0.3,0.4-0.8,0.4-1.5c0-0.4-0.1-0.8-0.2-1.1c-0.1-0.3-0.3-0.5-0.5-0.7
			c-0.2-0.2-0.5-0.2-0.8-0.2c-0.3,0-0.6,0.1-0.8,0.2c-0.2,0.2-0.4,0.4-0.5,0.7C925,470.9,924.9,471.3,924.9,471.7z M931.5,475.1
			l0.1-0.3l-1.9-4.8c-0.1-0.3-0.2-0.5-0.2-0.6c0-0.1,0-0.3,0.1-0.4c0.1-0.1,0.2-0.2,0.3-0.3c0.1-0.1,0.2-0.1,0.4-0.1
			c0.2,0,0.4,0.1,0.5,0.2c0.1,0.1,0.2,0.3,0.3,0.6l1.3,3.8l1.2-3.6c0.1-0.3,0.2-0.5,0.3-0.7c0.1-0.2,0.2-0.3,0.3-0.3
			c0.1-0.1,0.2-0.1,0.4-0.1c0.1,0,0.2,0,0.3,0.1c0.1,0.1,0.2,0.1,0.3,0.3c0.1,0.1,0.1,0.2,0.1,0.3c0,0.1,0,0.2-0.1,0.3
			c0,0.1-0.1,0.3-0.1,0.4l-2,5.3c-0.2,0.5-0.3,0.8-0.5,1.1c-0.2,0.3-0.4,0.5-0.7,0.6c-0.3,0.1-0.6,0.2-1.1,0.2c-0.5,0-0.8,0-1-0.1
			c-0.2-0.1-0.3-0.3-0.3-0.5c0-0.2,0.1-0.3,0.2-0.4c0.1-0.1,0.3-0.1,0.5-0.1c0.1,0,0.2,0,0.2,0c0.1,0,0.2,0,0.3,0
			c0.2,0,0.3,0,0.4-0.1c0.1-0.1,0.2-0.1,0.3-0.3C931.3,475.5,931.4,475.3,931.5,475.1z M954,468.7c-0.5,0-0.8,0.2-0.8,0.6
			c0,0.2,0.1,0.3,0.2,0.4c0.1,0.1,0.3,0.2,0.5,0.2h0.4v4.1c0,0.3,0.1,0.5,0.2,0.7c0.1,0.2,0.3,0.2,0.6,0.2c0.2,0,0.4-0.1,0.6-0.2
			c0.2-0.2,0.2-0.4,0.2-0.7v-4.1h0.4c0.3,0,0.5,0,0.7-0.1c0.2-0.1,0.2-0.2,0.2-0.5c0-0.4-0.3-0.5-0.9-0.5H956v-0.4
			c0-0.3,0-0.5,0.1-0.7c0.1-0.2,0.3-0.2,0.5-0.2c0.1,0,0.2,0,0.4,0c0.2,0,0.3,0,0.3,0c0.1,0,0.2-0.1,0.3-0.2
			c0.1-0.1,0.1-0.2,0.1-0.4c0-0.4-0.5-0.7-1.4-0.7c-0.5,0-0.9,0.1-1.2,0.2c-0.3,0.1-0.5,0.3-0.6,0.6c-0.1,0.3-0.2,0.7-0.2,1.2v0.5
			H954 M959.1,472.6c0-0.5,0-0.9,0-1.2c0-0.3,0.1-0.6,0.2-0.8c0.1-0.2,0.2-0.4,0.3-0.5c0.1-0.1,0.3-0.2,0.6-0.2c0.2,0,0.4,0,0.6,0.1
			c0.2,0.1,0.4,0.1,0.4,0.1c0.2,0,0.3-0.1,0.4-0.2c0.1-0.1,0.2-0.3,0.2-0.5c0-0.3-0.2-0.5-0.5-0.7c-0.3-0.2-0.6-0.2-1-0.2
			c-0.3,0-0.6,0.1-0.8,0.2c-0.2,0.2-0.4,0.4-0.6,0.7c0-0.3-0.1-0.6-0.2-0.7c-0.1-0.2-0.3-0.2-0.6-0.2c-0.5,0-0.8,0.3-0.8,1.1v4.3
			c0,0.3,0.1,0.5,0.2,0.7c0.1,0.2,0.3,0.2,0.6,0.2c0.2,0,0.4-0.1,0.6-0.2c0.1-0.2,0.2-0.4,0.2-0.7V472.6 M966.3,472.1h-3.1
			c0,0.4,0.1,0.7,0.2,0.9c0.1,0.3,0.3,0.5,0.6,0.6c0.2,0.1,0.5,0.2,0.8,0.2c0.2,0,0.4,0,0.5-0.1c0.2,0,0.3-0.1,0.4-0.2
			c0.1-0.1,0.3-0.2,0.4-0.3c0.1-0.1,0.3-0.2,0.5-0.4c0.1-0.1,0.2-0.1,0.3-0.1c0.2,0,0.3,0,0.4,0.1c0.1,0.1,0.1,0.2,0.1,0.4
			c0,0.1-0.1,0.3-0.2,0.5c-0.1,0.2-0.3,0.4-0.5,0.5c-0.2,0.2-0.5,0.3-0.8,0.4c-0.3,0.1-0.7,0.2-1.2,0.2c-1,0-1.8-0.3-2.3-0.9
			c-0.6-0.6-0.8-1.3-0.8-2.3c0-0.5,0.1-0.9,0.2-1.3c0.1-0.4,0.3-0.7,0.6-1c0.3-0.3,0.6-0.5,1-0.6c0.4-0.1,0.8-0.2,1.3-0.2
			c0.6,0,1.1,0.1,1.6,0.4c0.4,0.3,0.8,0.6,1,1c0.2,0.4,0.3,0.8,0.3,1.2c0,0.4-0.1,0.6-0.3,0.8C967,472,966.7,472.1,966.3,472.1
			 M963.3,471.2h2.8c0-0.5-0.2-0.9-0.4-1.2c-0.2-0.3-0.6-0.4-1-0.4c-0.4,0-0.7,0.1-1,0.4C963.5,470.3,963.3,470.7,963.3,471.2
			 M972.8,472.1h-3.1c0,0.4,0.1,0.7,0.2,0.9c0.1,0.3,0.3,0.5,0.6,0.6c0.2,0.1,0.5,0.2,0.8,0.2c0.2,0,0.4,0,0.5-0.1
			c0.2,0,0.3-0.1,0.5-0.2c0.1-0.1,0.3-0.2,0.4-0.3c0.1-0.1,0.3-0.2,0.5-0.4c0.1-0.1,0.2-0.1,0.3-0.1c0.2,0,0.3,0,0.4,0.1
			c0.1,0.1,0.1,0.2,0.1,0.4c0,0.1-0.1,0.3-0.2,0.5c-0.1,0.2-0.3,0.4-0.5,0.5c-0.2,0.2-0.5,0.3-0.8,0.4c-0.3,0.1-0.7,0.2-1.2,0.2
			c-1,0-1.8-0.3-2.3-0.9c-0.6-0.6-0.8-1.3-0.8-2.3c0-0.5,0.1-0.9,0.2-1.3c0.1-0.4,0.3-0.7,0.6-1c0.3-0.3,0.6-0.5,1-0.6
			c0.4-0.1,0.8-0.2,1.3-0.2c0.6,0,1.1,0.1,1.6,0.4c0.4,0.3,0.8,0.6,1,1c0.2,0.4,0.3,0.8,0.3,1.2c0,0.4-0.1,0.6-0.3,0.8
			C973.5,472,973.2,472.1,972.8,472.1 M969.7,471.2h2.8c0-0.5-0.2-0.9-0.4-1.2c-0.3-0.3-0.6-0.4-1-0.4c-0.4,0-0.7,0.1-1,0.4
			C970,470.3,969.8,470.7,969.7,471.2 M976.2,469.4v0.2c0.3-0.4,0.6-0.6,0.9-0.8c0.3-0.2,0.7-0.3,1.1-0.3c0.5,0,0.9,0.1,1.3,0.4
			c0.4,0.2,0.7,0.6,1,1.1c0.2,0.5,0.4,1,0.4,1.7c0,0.5-0.1,0.9-0.2,1.3c-0.1,0.4-0.3,0.7-0.6,1c-0.2,0.3-0.5,0.5-0.8,0.6
			c-0.3,0.1-0.7,0.2-1,0.2c-0.4,0-0.8-0.1-1.1-0.3c-0.3-0.2-0.6-0.4-0.9-0.8v2.3c0,0.7-0.2,1-0.7,1c-0.3,0-0.5-0.1-0.6-0.3
			c-0.1-0.2-0.1-0.4-0.1-0.8v-6.7c0-0.3,0.1-0.5,0.2-0.7c0.1-0.1,0.3-0.2,0.5-0.2c0.2,0,0.4,0.1,0.5,0.2
			C976.1,468.9,976.2,469.1,976.2,469.4 M979.3,471.7c0-0.4-0.1-0.8-0.2-1.1c-0.1-0.3-0.3-0.5-0.5-0.7c-0.2-0.2-0.5-0.2-0.7-0.2
			c-0.4,0-0.8,0.2-1.1,0.5c-0.3,0.3-0.4,0.8-0.4,1.5c0,0.6,0.1,1.1,0.4,1.4c0.3,0.3,0.7,0.5,1.1,0.5c0.3,0,0.5-0.1,0.7-0.2
			c0.2-0.2,0.4-0.4,0.5-0.7C979.2,472.5,979.3,472.1,979.3,471.7 M982.4,467.8c-0.2,0-0.4-0.1-0.6-0.2c-0.2-0.1-0.2-0.3-0.2-0.6
			c0-0.2,0.1-0.4,0.2-0.5c0.2-0.1,0.3-0.2,0.5-0.2c0.2,0,0.4,0.1,0.5,0.2c0.2,0.1,0.2,0.3,0.2,0.6c0,0.2-0.1,0.4-0.2,0.6
			C982.8,467.7,982.6,467.8,982.4,467.8 M983.2,469.4v4.5c0,0.3-0.1,0.5-0.2,0.7c-0.2,0.2-0.3,0.2-0.6,0.2c-0.2,0-0.4-0.1-0.6-0.2
			c-0.1-0.2-0.2-0.4-0.2-0.7v-4.5c0-0.3,0.1-0.5,0.2-0.7c0.1-0.2,0.3-0.2,0.6-0.2c0.2,0,0.4,0.1,0.6,0.2
			C983.1,468.9,983.2,469.1,983.2,469.4 M988.2,474.2c0.2,0.3,0.3,0.5,0.4,0.6c0.1,0.1,0.2,0.2,0.4,0.2c0.2,0,0.4-0.1,0.5-0.2
			c0.1-0.1,0.2-0.3,0.2-0.6c0-0.1,0-0.2-0.1-0.3c-0.1-0.1-0.1-0.2-0.3-0.4l-1.6-2.5l0.8-0.8c0.4-0.4,0.6-0.7,0.6-0.9
			c0-0.2-0.1-0.3-0.2-0.5c-0.1-0.1-0.3-0.2-0.5-0.2c-0.2,0-0.3,0-0.4,0.1c-0.1,0.1-0.3,0.2-0.5,0.5L986,471v-3.8
			c0-0.3-0.1-0.6-0.2-0.7c-0.1-0.2-0.3-0.2-0.6-0.2c-0.2,0-0.4,0.1-0.6,0.3c-0.1,0.2-0.2,0.4-0.2,0.8v6.7c0,0.3,0.1,0.5,0.2,0.7
			c0.1,0.2,0.3,0.2,0.6,0.2c0.2,0,0.4-0.1,0.5-0.2c0.2-0.2,0.2-0.4,0.2-0.7v-1.2l0.8-0.8L988.2,474.2 M991.6,474.9
			c0.2,0,0.4-0.1,0.6-0.2c0.2-0.2,0.3-0.4,0.3-0.6c0-0.2-0.1-0.4-0.3-0.6c-0.2-0.2-0.4-0.2-0.6-0.2c-0.2,0-0.4,0.1-0.6,0.3
			c-0.2,0.2-0.2,0.4-0.2,0.6c0,0.3,0.1,0.5,0.3,0.6C991.2,474.8,991.4,474.9,991.6,474.9 M999.3,472.9c0-0.2-0.1-0.3-0.2-0.5
			c-0.1-0.1-0.3-0.2-0.5-0.2c-0.2,0-0.3,0.1-0.4,0.1c-0.1,0.1-0.2,0.2-0.3,0.4c-0.2,0.3-0.4,0.5-0.6,0.7c-0.2,0.1-0.5,0.2-0.8,0.2
			c-0.2,0-0.4,0-0.6-0.1c-0.2-0.1-0.4-0.2-0.5-0.4c-0.1-0.2-0.2-0.4-0.3-0.6c-0.1-0.2-0.1-0.5-0.1-0.8c0-0.6,0.1-1.1,0.4-1.5
			c0.3-0.4,0.7-0.5,1.1-0.5c0.3,0,0.6,0.1,0.8,0.2c0.2,0.1,0.4,0.4,0.6,0.6c0.1,0.2,0.2,0.3,0.3,0.3c0.1,0.1,0.2,0.1,0.3,0.1
			c0.2,0,0.4-0.1,0.5-0.2c0.1-0.1,0.2-0.3,0.2-0.5c0-0.2-0.1-0.4-0.2-0.6c-0.1-0.2-0.3-0.4-0.5-0.6c-0.2-0.2-0.5-0.3-0.9-0.5
			c-0.3-0.1-0.7-0.2-1.1-0.2c-0.6,0-1.2,0.1-1.7,0.4c-0.5,0.3-0.8,0.6-1.1,1.1c-0.2,0.5-0.4,1.1-0.4,1.7c0,0.9,0.3,1.7,0.8,2.3
			c0.5,0.6,1.3,0.8,2.3,0.8c0.5,0,0.9-0.1,1.2-0.2c0.4-0.1,0.7-0.3,0.9-0.5c0.2-0.2,0.4-0.4,0.5-0.6
			C999.3,473.3,999.3,473.1,999.3,472.9 M1006.1,471.7c0,0.5-0.1,0.9-0.2,1.3c-0.1,0.4-0.4,0.7-0.6,1c-0.3,0.3-0.6,0.5-1,0.6
			c-0.4,0.1-0.8,0.2-1.3,0.2c-0.5,0-0.9-0.1-1.3-0.2c-0.4-0.2-0.7-0.4-1-0.7c-0.3-0.3-0.5-0.6-0.6-1c-0.1-0.4-0.2-0.8-0.2-1.3
			c0-0.5,0.1-0.9,0.2-1.3c0.1-0.4,0.4-0.7,0.6-1c0.3-0.3,0.6-0.5,1-0.6c0.4-0.2,0.8-0.2,1.3-0.2c0.5,0,0.9,0.1,1.3,0.2
			c0.4,0.2,0.7,0.4,1,0.6c0.3,0.3,0.5,0.6,0.6,1C1006,470.8,1006.1,471.2,1006.1,471.7 M1004.5,471.7c0-0.6-0.1-1.1-0.4-1.5
			c-0.3-0.4-0.7-0.5-1.1-0.5c-0.3,0-0.6,0.1-0.8,0.2c-0.2,0.2-0.4,0.4-0.5,0.7c-0.1,0.3-0.2,0.7-0.2,1.1c0,0.4,0.1,0.8,0.2,1.1
			c0.1,0.3,0.3,0.5,0.5,0.7c0.2,0.2,0.5,0.2,0.8,0.2c0.5,0,0.8-0.2,1.1-0.5C1004.4,472.8,1004.5,472.3,1004.5,471.7 M1012,471.8
			c0-0.7,0.1-1.1,0.2-1.4c0.1-0.2,0.2-0.4,0.4-0.5c0.2-0.1,0.4-0.2,0.6-0.2c0.3,0,0.4,0.1,0.6,0.2s0.2,0.3,0.2,0.5
			c0,0.2,0,0.5,0,0.8v2.6c0,0.3,0.1,0.6,0.2,0.7c0.2,0.2,0.3,0.2,0.6,0.2c0.2,0,0.4-0.1,0.6-0.2c0.1-0.2,0.2-0.4,0.2-0.7v-3
			c0-0.6-0.1-1-0.2-1.3c-0.2-0.3-0.4-0.6-0.7-0.7c-0.3-0.2-0.7-0.2-1.1-0.2c-0.4,0-0.7,0.1-1,0.2c-0.3,0.2-0.6,0.4-0.8,0.7
			c-0.2-0.3-0.4-0.6-0.7-0.7c-0.3-0.2-0.6-0.2-1-0.2c-0.4,0-0.7,0.1-1,0.2c-0.3,0.2-0.6,0.4-0.9,0.7v-0.1c0-0.2-0.1-0.4-0.2-0.6
			c-0.1-0.1-0.3-0.2-0.5-0.2c-0.2,0-0.4,0.1-0.5,0.2c-0.1,0.2-0.2,0.4-0.2,0.7v4.5c0,0.3,0.1,0.6,0.2,0.7c0.2,0.2,0.3,0.2,0.6,0.2
			c0.2,0,0.4-0.1,0.6-0.2c0.1-0.2,0.2-0.4,0.2-0.7v-2.1c0-0.7,0.1-1.2,0.2-1.5c0.2-0.4,0.5-0.5,1-0.5c0.3,0,0.4,0.1,0.6,0.2
			c0.1,0.1,0.2,0.3,0.2,0.5c0,0.2,0,0.5,0,0.9v2.5c0,0.3,0.1,0.6,0.2,0.7c0.1,0.2,0.3,0.2,0.6,0.2c0.2,0,0.4-0.1,0.6-0.2
			c0.2-0.2,0.2-0.4,0.2-0.7V471.8 M939.5,471.3C939.5,471.3,939.5,471.3,939.5,471.3C939.5,471.3,939.5,471.3,939.5,471.3z
			 M939.5,471.8L939.5,471.8c0-0.1-0.1-0.3-0.1-0.4C939.5,471.5,939.5,471.7,939.5,471.8z M940,473.2C940,473.3,940,473.3,940,473.2
			C940,473.3,940,473.3,940,473.2z M940,473.2C940,473.1,940,473.1,940,473.2C940,473.1,940,473.1,940,473.2z M939.7,472.4
			c0.1,0.2,0.2,0.5,0.3,0.7C939.8,472.8,939.8,472.6,939.7,472.4L939.7,472.4z M945.5,465.3c0.3,0,0.5,0,0.8,0.1l0.1-0.5
			c0,0-0.7-0.2-1.6-0.1l-0.1-0.2c0.3-0.1,0.5-0.3,0.5-0.6c0-0.3-0.3-0.6-0.6-0.6c-0.3,0-0.6,0.3-0.6,0.6c0,0.3,0.2,0.6,0.5,0.6
			l0.1,0.3c-1,0.1-1.8,0.5-1.8,0.5l0.1,0.4c0.6-0.2,1.1-0.3,1.6-0.4C944.9,465.4,945.2,465.3,945.5,465.3z M940,467.7L940,467.7
			C940.1,467.6,940.1,467.6,940,467.7l-0.1-0.2l-0.3-0.2c0,0-0.5,0.4-0.8,1.2c0,0,0,0-0.1-0.1c-0.1-0.1-0.3-0.2-0.5-0.2h0
			c-0.1,0-0.2,0-0.3-0.1c0.1-0.1,0.1-0.2,0.1-0.2c0-0.2-0.2-0.4-0.4-0.4c-0.2,0-0.4,0.2-0.4,0.4s0.2,0.4,0.4,0.4c0,0,0.1,0,0.1,0
			c0.1,0.1,0.3,0.2,0.5,0.2c0.1,0,0.2,0,0.3,0.1c0.1,0.1,0.1,0.2,0.1,0.3c0,0,0,0,0,0c-0.3,0.7-0.2,1.6-0.2,1.6l0.6,0
			c0-0.3,0.1-0.9,0.2-1.3C939.6,468.2,940,467.7,940,467.7z M951,465.9c-0.2,0-0.4,0.2-0.4,0.4c0,0,0,0.1,0,0.1
			c-0.1,0.1-0.2,0.3-0.2,0.5c0,0.1,0,0.2-0.1,0.3c-0.1,0-0.1,0.1-0.2,0.1c-0.5-0.7-1.1-1.1-1.1-1.1l-0.5,0.5c0.3,0.3,0.7,0.7,1,1.2
			c0.2,0.3,0.5,0.8,0.7,1.2l0.6-0.3c0,0-0.3-0.7-0.7-1.3c0.1,0,0.1-0.1,0.2-0.1c0.1-0.1,0.2-0.3,0.2-0.5c0-0.1,0-0.2,0.1-0.3
			c0.1,0.1,0.2,0.1,0.2,0.1c0.2,0,0.4-0.2,0.4-0.4C951.4,466.1,951.2,465.9,951,465.9z M949.4,471.4c-0.8,0.4-2.2,1-4.1,1.2
			c-0.7,0.1-1.4,0.1-2.1,0.1c-0.8,0-1.6-0.1-2.1-0.1c-0.6-0.1-1.2-0.2-1.5-0.3c0.1,0.2,0.2,0.5,0.3,0.7c0,0,0,0,0,0c0,0,0,0.1,0,0.1
			c0,0,0,0.1,0,0.1c0,0,0,0,0,0c0.2,0.3,0.4,0.7,0.6,0.9c0.9,0.9,1.7,1.1,1.8,1.1l0,0l0,0c0,0,0.8,0.3,2,0.3c1.2,0,2.3-0.2,3.4-0.7
			c0.8-0.4,1.6-1,2-1.6c0.3-0.4,0.5-0.9,0.6-1.4c0.1-0.3,0.1-0.7,0.1-1.1C950.3,470.9,949.9,471.2,949.4,471.4z M940.3,467.9
			c0,0-0.4,0.6-0.7,1.4c-0.2,0.6-0.2,1.5-0.2,1.5v0c0,0.2,0,0.4,0,0.6c0,0,0,0,0,0c0,0,0,0,0,0.1c0,0.1,0,0.3,0.1,0.4
			c0.4,0.1,2.9,0.7,5.7,0.3c1.8-0.2,3.1-0.8,3.9-1.2c0.7-0.3,1.1-0.6,1.3-0.7c-0.2-0.6-0.6-1.6-1-2.2c-1.2-1.7-2.5-2.2-3.2-2.3
			c-0.3,0-0.5-0.1-0.7-0.1c-0.3,0-0.6,0-1,0.1c-0.4,0-0.9,0.2-1.5,0.4c-0.8,0.3-1.5,0.7-2.1,1.2l0,0
			C940.7,467.4,940.5,467.6,940.3,467.9z M947.7,467.5c0.6,0,1,0.5,1,1c0,0.6-0.5,1-1,1c-0.6,0-1-0.5-1-1
			C946.6,467.9,947.1,467.5,947.7,467.5z M942.7,467.4c0.9,0,1.7,0.8,1.7,1.7c0,0.9-0.8,1.7-1.7,1.7c-0.9,0-1.7-0.8-1.7-1.7
			C941,468.2,941.8,467.4,942.7,467.4z"/>
	</g>
</g>
</svg>
