<svg xmlns="http://www.w3.org/2000/svg" viewBox="0 0 140.85 64.55"><defs><style>.cls-1{fill:none;stroke:#7d868c;stroke-miterlimit:10;}.cls-2{fill:#7d868c;}.cls-3{fill:#9dbe15;}</style></defs><title>logo</title><g id="Capa_2" data-name="Capa 2"><g id="Capa_1-2" data-name="Capa 1"><polyline class="cls-1" points="19.72 43.05 24.32 43.05 24.32 33.67 32.97 33.67 32.97 43.05 49.35 43.05 49.35 33.67 60.39 33.67 60.39 43.05 56.34 43.05 56.34 0.73 71.61 6.62 71.61 31.09 76.03 31.09 76.03 43.05 92.96 43.05 92.96 22.5 108.78 22.5 108.78 38.45 104.92 38.45 104.92 30.91 120.74 30.91 120.74 43.05 127.37 43.05"/><rect class="cls-1" x="96" y="26.3" width="3.44" height="3.44"/><rect class="cls-1" x="114.38" y="34.17" width="3.58" height="3.58"/><circle class="cls-1" cx="41.5" cy="33.05" r="4.5"/><circle class="cls-1" cx="84.76" cy="33.05" r="4.5"/><line class="cls-1" x1="41.5" y1="43.05" x2="41.5" y2="33.05"/><line class="cls-1" x1="84.76" y1="43.05" x2="84.76" y2="33.05"/><path class="cls-1" d="M42.91,34.46a2,2,0,1,1,0-2.83"/><path class="cls-1" d="M86.18,34.46a2,2,0,1,1,0-2.83"/><path class="cls-2" d="M5,64.32,0,50.6H2.12l2.36,6.76c.65,1.85,1.22,3.52,1.62,5.13h0c.43-1.59,1.06-3.32,1.73-5.11l2.57-6.78h2.09L7.11,64.32Z"/><path class="cls-2" d="M16.14,50.6V64.32h-2V50.6Z"/><path class="cls-2" d="M19.29,62.16a7.49,7.49,0,0,0,3.51.9c2,0,3.17-1,3.17-2.34s-.81-2-2.86-2.73c-2.48-.79-4-2-4-3.89,0-2.14,2-3.72,4.91-3.72a7.49,7.49,0,0,1,3.35.67l-.54,1.45a6.54,6.54,0,0,0-2.88-.65c-2.07,0-2.86,1.12-2.86,2.06,0,1.28.92,1.91,3,2.65,2.57.9,3.87,2,3.87,4s-1.73,3.95-5.31,3.95a8.5,8.5,0,0,1-3.87-.88Z"/><path class="cls-2" d="M43.62,57.32c0,4.72-3.17,7.23-7,7.23a6.57,6.57,0,0,1-6.82-7,6.81,6.81,0,0,1,7-7.21C40.94,50.38,43.62,53.25,43.62,57.32Zm-11.78.22c0,2.93,1.76,5.56,4.84,5.56s4.86-2.59,4.86-5.7c0-2.73-1.58-5.58-4.84-5.58S31.85,54.53,31.85,57.54Z"/><path class="cls-2" d="M46.16,50.79a22.53,22.53,0,0,1,3.76-.29c2.09,0,3.44.35,4.39,1.12a3.27,3.27,0,0,1,1.19,2.61,3.67,3.67,0,0,1-2.86,3.5v.06a3.48,3.48,0,0,1,2.23,2.77A20.29,20.29,0,0,0,56,64.32H54A16.45,16.45,0,0,1,53,61c-.45-1.89-1.26-2.61-3-2.67H48.12v5.94h-2Zm2,6.25h2c2.09,0,3.42-1,3.42-2.61,0-1.77-1.42-2.54-3.49-2.56a8.87,8.87,0,0,0-1.94.16Z"/><path class="cls-3" d="M66.38,50.6v8.12c0,3.07,1.43,4.38,3.35,4.38,2.14,0,3.5-1.34,3.5-4.38V50.6h1.88v8c0,4.21-2.33,5.94-5.45,5.94-2.95,0-5.17-1.61-5.17-5.86V50.6Z"/><path class="cls-3" d="M78.34,50.79a20.31,20.31,0,0,1,3.57-.29c2,0,3.27.35,4.17,1.12a3.34,3.34,0,0,1,1.13,2.61,3.63,3.63,0,0,1-2.71,3.5v.06a3.44,3.44,0,0,1,2.12,2.77,21.07,21.07,0,0,0,1.11,3.77H85.8a17.09,17.09,0,0,1-1-3.28c-.43-1.89-1.2-2.61-2.89-2.67H80.2v5.94H78.34ZM80.2,57h1.9c2,0,3.25-1,3.25-2.61,0-1.77-1.35-2.54-3.31-2.56A8,8,0,0,0,80.2,52Z"/><path class="cls-3" d="M89.83,50.79a18.87,18.87,0,0,1,3.4-.29,6.17,6.17,0,0,1,4,1,2.83,2.83,0,0,1,1.2,2.42,3.28,3.28,0,0,1-2.44,3v0a3.56,3.56,0,0,1,1.75,6.19c-1,.87-2.63,1.28-5,1.28a22.88,22.88,0,0,1-2.89-.16Zm1.86,5.62h1.69c2,0,3.12-1,3.12-2.3,0-1.61-1.28-2.24-3.16-2.24a8.37,8.37,0,0,0-1.64.12Zm0,6.57a10.43,10.43,0,0,0,1.56.08c1.92,0,3.7-.67,3.7-2.67s-1.69-2.65-3.72-2.65H91.69Z"/><path class="cls-3" d="M103.74,60l-1.5,4.32h-1.92l4.89-13.72h2.24l4.91,13.72h-2L108.85,60Zm4.72-1.38-1.41-3.95c-.32-.9-.53-1.71-.75-2.5h0c-.21.81-.45,1.65-.73,2.48l-1.41,4Z"/><path class="cls-3" d="M114.49,64.32V50.6h2l4.62,6.94A38.32,38.32,0,0,1,123.72,62l0,0c-.17-1.83-.21-3.5-.21-5.64V50.6h1.75V64.32h-1.88l-4.57-7a43.1,43.1,0,0,1-2.69-4.58l-.06,0c.11,1.73.15,3.38.15,5.66v5.86Z"/><path class="cls-3" d="M140.85,57.32c0,4.72-3,7.23-6.69,7.23s-6.48-2.81-6.48-7c0-4.36,2.84-7.21,6.69-7.21S140.85,53.25,140.85,57.32Zm-11.18.22c0,2.93,1.67,5.56,4.59,5.56s4.62-2.59,4.62-5.7c0-2.73-1.5-5.58-4.59-5.58S129.67,54.53,129.67,57.54Z"/><line class="cls-1" x1="56.34" y1="9.44" x2="71.61" y2="9.44"/><line class="cls-1" x1="56.34" y1="12.44" x2="71.61" y2="12.44"/><line class="cls-1" x1="56.34" y1="15.44" x2="71.61" y2="15.44"/><line class="cls-1" x1="56.34" y1="18.44" x2="71.61" y2="18.44"/><line class="cls-1" x1="56.34" y1="21.44" x2="71.61" y2="21.44"/><line class="cls-1" x1="56.34" y1="24.44" x2="71.61" y2="24.44"/></g></g></svg>