<?xml version="1.0" standalone="no"?>
<!DOCTYPE svg PUBLIC "-//W3C//DTD SVG 20010904//EN"
 "http://www.w3.org/TR/2001/REC-SVG-20010904/DTD/svg10.dtd">
<svg version="1.0" xmlns="http://www.w3.org/2000/svg"
 width="912.000000pt" height="912.000000pt" viewBox="0 0 912.000000 912.000000"
 preserveAspectRatio="xMidYMid meet">
<metadata>
Created by potrace 1.11, written by Peter Selinger 2001-2013
</metadata>
<g transform="translate(0.000000,912.000000) scale(0.100000,-0.100000)"
fill="#000000" stroke="none">
<path d="M872 7383 c-45 -15 -72 -40 -92 -88 -20 -44 -20 46 -5 -1760 4 -456
8 -1048 10 -1315 2 -267 6 -862 10 -1322 5 -798 5 -838 -12 -839 -10 0 -190
-1 -400 -2 l-383 0 0 -169 c0 -127 3 -168 13 -169 6 0 233 -1 503 -1 548 -1
537 -2 592 70 l27 36 -2 655 c-1 361 -4 1012 -7 1446 -4 435 -8 1107 -11 1495
-3 388 -7 915 -9 1171 l-5 466 1967 -1 1967 -1 0 -919 0 -919 -487 0 c-553 1
-542 2 -595 -78 l-28 -42 0 -1001 c-1 -558 3 -1016 8 -1035 12 -48 44 -87 86
-108 33 -16 85 -17 621 -18 356 -1 598 3 618 9 41 12 88 56 105 98 10 27 13
213 12 934 l0 901 1378 0 c981 0 1377 -3 1378 -11 1 -6 2 -688 3 -1516 2
-1030 6 -1513 13 -1530 20 -47 73 -89 122 -96 25 -4 195 -7 378 -7 358 0 370
2 420 55 41 43 57 124 35 179 -16 40 -69 87 -110 98 -20 6 -138 10 -262 10
-124 0 -232 0 -241 0 -15 1 -17 120 -17 1516 l0 1514 -22 38 c-11 21 -37 50
-57 63 l-37 25 -1485 2 c-817 1 -1488 2 -1491 2 -3 1 -5 459 -5 1018 0 747 -3
1026 -11 1051 -15 41 -39 69 -79 90 -27 15 -229 16 -2204 17 -1624 0 -2183 -3
-2209 -12z m4165 -3307 l0 -801 -387 0 -387 0 0 801 0 801 387 0 387 0 0 -801z"/>
<path d="M1820 6529 c-42 -9 -80 -38 -105 -80 -19 -32 -20 -53 -20 -514 1
-537 -1 -525 72 -575 l37 -25 475 -2 c319 -2 487 1 509 8 43 14 89 62 101 104
4 17 8 245 7 507 l-1 475 -28 36 c-55 73 -39 71 -553 72 -254 0 -476 -3 -494
-6z m750 -595 l0 -274 -22 -1 c-13 0 -137 -2 -275 -2 l-253 -2 0 276 0 277
275 0 275 0 0 -274z"/>
<path d="M6535 4456 c-35 -16 -77 -60 -91 -96 -7 -16 -10 -197 -9 -495 1 -531
0 -522 78 -572 l39 -25 482 0 c420 0 487 2 513 16 36 18 82 70 85 94 1 9 2
232 3 494 2 467 1 478 -19 515 -14 24 -37 46 -66 61 -44 22 -46 22 -515 22
-370 -1 -476 -4 -500 -14z m771 -319 c8 -7 8 -523 0 -535 -4 -7 -105 -10 -274
-9 l-267 2 -1 275 -1 275 268 -1 c148 0 272 -3 275 -7z"/>
</g>
</svg>
